<svg width="6" height="10" viewBox="0 0 6 10" fill="none" xmlns="http://www.w3.org/2000/svg">
<path d="M3.7 4.55L0.175 1.025C0.0583333 0.908333 0 0.766667 0 0.6C0 0.433333 0.0583333 0.291667 0.175 0.175C0.291667 0.0583333 0.433333 0 0.6 0C0.766667 0 0.908333 0.0583333 1.025 0.175L4.7625 3.9125C4.85417 4.00417 4.92083 4.10417 4.9625 4.2125C5.00417 4.32083 5.025 4.43333 5.025 4.55C5.025 4.66667 5.00417 4.77917 4.9625 4.8875C4.92083 4.99583 4.85417 5.09583 4.7625 5.1875L1.025 8.925C0.908333 9.04167 0.766667 9.1 0.6 9.1C0.433333 9.1 0.291667 9.04167 0.175 8.925C0.0583333 8.80833 0 8.66667 0 8.5C0 8.33333 0.0583333 8.19167 0.175 8.075L3.7 4.55Z" fill="#047BB6"/>
</svg>
