<svg width="52" height="48" viewBox="0 0 52 48" fill="none" xmlns="http://www.w3.org/2000/svg">
<g clip-path="url(#clip0_525_4152)">
<path d="M35.154 45.4492H16.8438L19.738 34.8546H32.2597L35.154 45.4492Z" fill="#F1F5F9" stroke="#1C8CF4" stroke-width="2" stroke-linejoin="round"/>
<path d="M41.1256 43.3083H10.875V47.0825H41.1256V43.3083Z" fill="#F1F5F9" stroke="#1C8CF4" stroke-width="2" stroke-linejoin="round"/>
<path d="M4.34547 0.917542H47.6566C49.5518 0.917542 51.0958 2.47126 51.0958 4.39199V32.1753C51.0958 34.09 49.5579 35.6498 47.6566 35.6498H4.34547C2.45026 35.6498 0.90625 34.0961 0.90625 32.1753V4.39199C0.90625 2.47126 2.44421 0.917542 4.34547 0.917542Z" fill="white" stroke="#94A3B8" stroke-width="2"/>
<path d="M45.9577 30.4749H6.03125V6.08643H45.9577V30.4749Z" fill="#F1F5F9" stroke="#94A3B8" stroke-width="2"/>
<path d="M17 19.2482L19.9556 16.3174L23.8181 20.1424L32.0404 12L35 14.9268L23.8181 26L17 19.2482Z" fill="white" stroke="#1C8CF4" stroke-width="2" stroke-linecap="round" stroke-linejoin="round"/>
</g>
<defs>
<clipPath id="clip0_525_4152">
<rect width="52" height="48" fill="white"/>
</clipPath>
</defs>
</svg>
